#!OML:ASF H:\GeneralSubjects\Female5\Project 1\Capture day 1\Session 1\Female5.ASF
:FULLY-SPECIFIED
:DEGREES
163
root -12.89 16.2719 1.00745 -3.46763 81.4272 -12.9775
lowerback 6.01233 2.58273 2.87771
upperback -10.2794 4.11652 -0.778361
thorax -14.4313 1.69754 -3.2465
lowerneck -15.085 3.15011 8.78752
upperneck 34.2098 4.36108 -3.50622
head 14.6086 2.95503 -2.13831
rclavicle -1.09332e-015 2.18663e-015
rhumerus -56.8787 13.8042 -87.6421
rradius 42.1899
rwrist -11.5501
rhand -26.3574 -20.7586
rfingers 7.12502
rthumb 0.200518 -50.7383
lclavicle -1.09332e-015 2.18663e-015
lhumerus -49.3334 -4.5345 77.9834
lradius 31.9944
lwrist -6.11993
lhand -27.2342 28.873
lfingers 7.12502
lthumb -0.646287 58.8517
rfemur -3.38094 24.0483 29.5318
rtibia -0.621265
rfoot -19.2771 -21.6784
rtoes -14.2743
lfemur -6.281 -28.8785 -25.5757
ltibia 7.09197
lfoot -28.1901 -7.13482
ltoes -34.814
164
root -12.8751 16.2778 1.02022 -4.34695 82.0795 -14.0338
lowerback 5.82067 2.60165 2.7088
upperback -10.2931 4.13552 -0.654298
thorax -14.3443 1.74026 -3.00689
lowerneck -14.9635 2.99579 8.93096
upperneck 34.0243 4.21404 -3.86105
head 14.4945 2.86014 -2.33553
rclavicle 3.03892e-014 1.78906e-015
rhumerus -57.0424 14.2182 -87.8024
rradius 42.1232
rwrist -11.1867
rhand -26.8259 -20.0214
rfingers 7.12502
rthumb -0.251906 -50.001
lclavicle 3.03892e-014 1.78906e-015
lhumerus -49.4815 -4.22078 77.9619
lradius 31.9307
lwrist -6.73279
lhand -24.9501 32.4132
lfingers 7.12502
lthumb 1.55979 62.3872
rfemur -3.30356 24.2741 29.5208
rtibia -0.870434
rfoot -19.5173 -22.327
rtoes -13.8912
lfemur -6.55532 -29.2595 -25.3992
ltibia 7.06299
lfoot -27.913 -6.16734
ltoes -35.154
165
root -12.8636 16.2812 1.03427 -6.73564 82.764 -16.5907
lowerback 5.77651 2.65081 2.82575
upperback -10.3437 4.22906 -0.62469
thorax -14.3665 1.77615 -3.05528
lowerneck -15.3082 2.73568 8.69216
upperneck 34.2178 3.87848 -3.8664
head 14.6239 2.68796 -2.35235
rclavicle 3.83903e-014 1.13307e-014
rhumerus -57.2766 14.4542 -88.109
rradius 42.0217
rwrist -10.8729
rhand -26.6923 -19.9521
rfingers 7.12502
rthumb -0.12288 -49.9318
lclavicle 3.83903e-014 1.13307e-014
lhumerus -49.6984 -4.27523 77.9486
lradius 32.105
lwrist -7.05707
lhand -24.4563 33.0558
lfingers 7.12502
lthumb 2.03671 63.0258
rfemur -3.16096 24.4705 29.7156
rtibia -1.22799
rfoot -19.6363 -23.0314
rtoes -12.1519
lfemur -6.85619 -29.3482 -24.9924
ltibia 7.14315
lfoot -27.2203 -4.756
ltoes -35.2527
166
root -12.8537 16.2859 1.04655 -10.5901 83.5085 -20.5795
lowerback 5.74401 2.61121 2.83419
upperback -10.4092 4.20719 -0.453249
thorax -14.4405 1.77836 -2.86895
lowerneck -15.3281 2.52061 8.38469
upperneck 34.1975 3.62669 -3.79453
head 14.5856 2.55133 -2.31135
rclavicle -9.44227e-016 3.97569e-015
rhumerus -57.6016 14.8443 -88.3556
rradius 41.8859
rwrist -10.3769
rhand -25.8747 -20.5922
rfingers 7.12502
rthumb 0.666797 -50.5709
lclavicle -9.44227e-016 3.97569e-015
lhumerus -50.0789 -4.24812 78.0304
lradius 32.3634
lwrist -6.86818
lhand -25.0568 32.3072
lfingers 7.12502
lthumb 1.45672 62.282
rfemur -2.93997 24.3518 30.0144
rtibia -1.72077
rfoot -19.4084 -23.601
rtoes -9.93097
lfemur -7.12314 -29.5823 -24.4953
ltibia 6.76007
lfoot -25.989 -3.68524
ltoes -32.8836
167
root -12.8414 16.2875 1.05704 -14.2712 84.3021 -24.3235
lowerback 5.75284 2.5632 2.71329
upperback -10.4746 4.15229 -0.331059
thorax -14.547 1.77438 -2.66236
lowerneck -14.7345 2.36717 8.58159
upperneck 33.6845 3.46458 -4.06685
head 14.212 2.46456 -2.48312
rclavicle 5.2181e-015 9.93923e-015
rhumerus -58.0584 15.1359 -88.6111
rradius 41.7095
rwrist -9.90285
rhand -26.2787 -19.8299
rfingers 7.12502
rthumb 0.276523 -49.8095
lclavicle 5.2181e-015 9.93923e-015
lhumerus -50.5362 -4.25687 78.0865
lradius 32.7114
lwrist -6.58592
lhand -25.0294 32.5577
lfingers 7.12502
lthumb 1.48322 62.5323
rfemur -2.53003 24.4818 30.2229
rtibia -2.297
rfoot -19.4478 -24.4605
rtoes -8.95722
lfemur -7.18996 -29.5819 -24.3364
ltibia 6.09036
lfoot -24.4427 -2.6825
ltoes -30.4191
